<svg width="33" height="30" viewBox="0 0 33 30" fill="none" xmlns="http://www.w3.org/2000/svg">
<g id="&#240;&#159;&#166;&#134; icon &#34;United Kingdom&#34;">
<g id="Mask group">
<mask id="mask0_183_898" style="mask-type:luminance" maskUnits="userSpaceOnUse" x="0" y="0" width="33" height="30">
<g id="Group">
<path id="Vector" d="M0 0H32.1667V30H0V0Z" fill="white"/>
</g>
</mask>
<g mask="url(#mask0_183_898)">
<g id="Group_2">
<path id="Vector_2" fill-rule="evenodd" clip-rule="evenodd" d="M0 0V30H32.1667V0H0Z" fill="#2E42A5"/>
<g id="Mask group_2">
<mask id="mask1_183_898" style="mask-type:luminance" maskUnits="userSpaceOnUse" x="0" y="0" width="33" height="30">
<g id="Group_3">
<path id="Vector_3" fill-rule="evenodd" clip-rule="evenodd" d="M0 0V30H32.1667V0H0Z" fill="white"/>
</g>
</mask>
<g mask="url(#mask1_183_898)">
<g id="Group_4">
<g id="Mask group_3">
<mask id="mask2_183_898" style="mask-type:luminance" maskUnits="userSpaceOnUse" x="0" y="0" width="33" height="30">
<g id="Group_5">
<path id="Vector_4" d="M0 0H32.1667V30H0V0Z" fill="white"/>
</g>
</mask>
<g mask="url(#mask2_183_898)">
<g id="Group_6">
<path id="Vector_5" d="M-3.58154 27.8568L3.49682 31.5793L32.3274 4.04729L36.0611 -1.48456L28.4919 -2.72876L16.7325 9.13558L7.26746 17.1294L-3.58154 27.8568Z" fill="white"/>
<path id="Vector_6" d="M-2.61304 30.4649L0.99306 32.6252L34.7198 -1.9985H29.6565L-2.61304 30.4649Z" fill="#F50100"/>
<path id="Vector_7" d="M35.7486 27.8568L28.6702 31.5793L-0.160364 4.04729L-3.89404 -1.48456L3.67526 -2.72876L15.4346 9.13558L24.8996 17.1294L35.7486 27.8568Z" fill="white"/>
<path id="Vector_8" d="M35.5068 29.7287L31.9007 31.8889L17.5395 17.0648L13.2816 15.4084L-4.25366 -1.46552H0.80972L18.3352 15.0079L22.9903 16.9941L35.5068 29.7287Z" fill="#F50100"/>
<path id="Vector_9" fill-rule="evenodd" clip-rule="evenodd" d="M19.8808 -2.50003H12.286V9.99997H-1.98267V20H12.286V32.5H19.8808V20H34.2049V9.99997H19.8808V-2.50003Z" fill="#F50100"/>
<g id="Mask group_4">
<mask id="mask3_183_898" style="mask-type:luminance" maskUnits="userSpaceOnUse" x="-2" y="-3" width="37" height="36">
<g id="Group_7">
<path id="Vector_10" fill-rule="evenodd" clip-rule="evenodd" d="M19.8808 -2.50003H12.286V9.99997H-1.98267V20H12.286V32.5H19.8808V20H34.2049V9.99997H19.8808V-2.50003Z" fill="white"/>
</g>
</mask>
<g mask="url(#mask3_183_898)">
<path id="Vector_11" d="M12.2859 -2.50003V-5.00003H10.2755V-2.50003H12.2859ZM19.8808 -2.50003H21.8912V-5.00003H19.8808V-2.50003ZM12.2859 9.99997V12.5H14.2963V9.99997H12.2859ZM-1.98275 9.99997V7.49997H-3.99316V9.99997H-1.98275ZM-1.98275 20H-3.99316V22.5H-1.98275V20ZM12.2859 20H14.2963V17.5H12.2859V20ZM12.2859 32.5H10.2755V35H12.2859V32.5ZM19.8808 32.5V35H21.8912V32.5H19.8808ZM19.8808 20V17.5H17.8703V20H19.8808ZM34.2048 20V22.5H36.2152V20H34.2048ZM34.2048 9.99997H36.2152V7.49997H34.2048V9.99997ZM19.8808 9.99997H17.8703V12.5H19.8808V9.99997ZM12.2859 -3.05176e-05H19.8808V-5.00003H12.2859V-3.05176e-05ZM14.2963 9.99997V-2.50003H10.2755V9.99997H14.2963ZM-1.98275 12.5H12.2859V7.49997H-1.98275V12.5ZM0.0276647 20V9.99997H-3.99316V20H0.0276647ZM12.2859 17.5H-1.98275V22.5H12.2859V17.5ZM14.2963 32.5V20H10.2755V32.5H14.2963ZM19.8808 30H12.2859V35H19.8808V30ZM17.8703 20V32.5H21.8912V20H17.8703ZM34.2048 17.5H19.8808V22.5H34.2048V17.5ZM32.1944 9.99997V20H36.2152V9.99997H32.1944ZM19.8808 12.5H34.2048V7.49997H19.8808V12.5ZM17.8703 -2.50003V9.99997H21.8912V-2.50003H17.8703Z" fill="white"/>
</g>
</g>
</g>
</g>
</g>
</g>
</g>
</g>
</g>
</g>
</g>
</g>
</svg>
