<svg width="30" height="30" viewBox="0 0 30 30" fill="none" xmlns="http://www.w3.org/2000/svg">
<g id="&#240;&#159;&#166;&#134; icon &#34;instagram&#34;">
<path id="Vector" fill-rule="evenodd" clip-rule="evenodd" d="M12.0625 8.18182C9.0344 8.18182 6.57959 11.2344 6.57959 15C6.57959 18.7656 9.0344 21.8182 12.0625 21.8182C15.0907 21.8182 17.5455 18.7656 17.5455 15C17.5455 11.2344 15.0907 8.18182 12.0625 8.18182ZM8.77277 15C8.77277 17.2594 10.2456 19.0909 12.0625 19.0909C13.8795 19.0909 15.3523 17.2594 15.3523 15C15.3523 12.7406 13.8795 10.9091 12.0625 10.9091C10.2456 10.9091 8.77277 12.7406 8.77277 15Z" fill="black"/>
<path id="Vector_2" d="M18.642 5.45456C18.0364 5.45456 17.5454 6.06509 17.5454 6.8182C17.5454 7.57131 18.0364 8.18183 18.642 8.18183C19.2476 8.18183 19.7386 7.57131 19.7386 6.8182C19.7386 6.06509 19.2476 5.45456 18.642 5.45456Z" fill="black"/>
<path id="Vector_3" fill-rule="evenodd" clip-rule="evenodd" d="M5.45455 0C2.44208 0 0 2.44208 0 5.45455V24.5455C0 27.5579 2.44208 30 5.45455 30H24.5455C27.5579 30 30 27.5579 30 24.5455V5.45455C30 2.44208 27.5579 0 24.5455 0H5.45455ZM24.5455 2.72727H5.45455C3.94831 2.72727 2.72727 3.94831 2.72727 5.45455V24.5455C2.72727 26.0517 3.94831 27.2727 5.45455 27.2727H24.5455C26.0517 27.2727 27.2727 26.0517 27.2727 24.5455V5.45455C27.2727 3.94831 26.0517 2.72727 24.5455 2.72727Z" fill="black"/>
</g>
</svg>
